<svg xmlns="http://www.w3.org/2000/svg" width="300" height="300" style="width:100%;height:100%;transform:translate3d(0,0,0)">
  <defs>
    <clipPath id="a">
      <path d="M0 0h300v300H0z"/>
    </clipPath>
    <mask id="b" mask-type="alpha">
      <g style="display:block">
        <path fill="#17191C" d="M226.72799683-165.5269928H-25.29800034v335.76298523h252.02599717V-165.5269928z" transform="matrix(.61 0 0 .61 149.9994812 150.00042725)"/>
        <path fill-opacity="0" stroke-miterlimit="10" stroke="#F7CA0D" d="M226.72799683-165.5269928H-25.29800034v335.76298523h252.02599717V-165.5269928z" transform="matrix(.61 0 0 .61 149.9994812 150.00042725)"/>
      </g>
    </mask>
  </defs>
  <g clip-path="url(#a)">
    <g mask="url(#b)" style="display:block">
      <path fill="#F8F9FA" d="m117.73212842 30.44779017 68.23704063 40.83278812 28.24605317-51.11738874L192.0319587 6.9701056H131.3723376l-13.6402092 23.47768458z"/>
      <path stroke-miterlimit="10" stroke="#C6C6C6" d="m117.73212842 30.44779017 68.23704063 40.83278812 28.24605317-51.11738874L192.0319587 6.9701056H131.3723376l-13.6402092 23.47768458z" fill="none" stroke-width=".61"/>
      <path fill="#F8F9FA" d="m218.6243004 22.6428411 51.9439408 30.03700907s-15.98261283 21.9075414-18.32501065 74.81650268c-2.34239782 52.90896128-4.40907817 55.80219137-4.40907817 55.80219137l-91.76413366-55.25075177 33.06810254-51.53157927L218.6243004 22.6428411z"/>
      <path stroke-miterlimit="10" stroke="#C6C6C6" d="m218.6243004 22.6428411 51.9439408 30.03700907s-15.98261283 21.9075414-18.32501065 74.81650268c-2.34239782 52.90896128-4.40907817 55.80219137-4.40907817 55.80219137l-91.76413366-55.25075177 33.06810254-51.53157927L218.6243004 22.6428411z" fill="none" stroke-width=".61"/>
      <path fill="#F8F9FA" d="m122.66031766 39.57339447 60.82920217 36.39198877-31.69072141 49.74000907-60.05633-35.39952175 30.91784924-50.73247609z"/>
      <path stroke-miterlimit="10" stroke="#C6C6C6" d="m122.66031766 39.57339447 60.82920217 36.39198877-31.69072141 49.74000907-60.05633-35.39952175 30.91784924-50.73247609z" fill="none" stroke-width=".61"/>
      <path fill="#F8F9FA" d="m79.73827762 160.70231297 32.93023915-52.3581325 134.47694693 80.32785272s-.13785873 16.25833263-25.90365302 59.5225855c-55.5270824-34.03251567-141.50353306-87.49230572-141.50353306-87.49230572z"/>
      <path stroke-miterlimit="10" stroke="#C6C6C6" d="m79.73827762 160.70231297 32.93023915-52.3581325 134.47694693 80.32785272s-.13785873 16.25833263-25.90365302 59.5225855c-55.5270824-34.03251567-141.50353306-87.49230572-141.50353306-87.49230572z" fill="none" stroke-width=".61"/>
      <path fill="#F8F9FA" d="m45.60206771 219.12262545 31.51808996-53.73551219L218.07286079 252.500603s-26.86744951 38.8551747-30.07117125 52.39229585c-54.76885119-32.24155746-142.39962183-85.7702734-142.39962183-85.7702734z"/>
      <path stroke-miterlimit="10" stroke="#C6C6C6" d="m45.60206771 219.12262545 31.51808996-53.73551219L218.07286079 252.500603s-26.86744951 38.8551747-30.07117125 52.39229585c-54.76885119-32.24155746-142.39962183-85.7702734-142.39962183-85.7702734z" fill="none" stroke-width=".61"/>
      <path fill="#F8F9FA" d="M302.49991202 6.9701056h-6.85456986s-6.3385141 31.1045184-19.5657486 53.28777727c-13.2272438 22.18325889-14.60523548 59.52257853-16.2583303 85.28836962-1.65310414 25.76579051.27571747 52.21966149-23.0098156 92.0392377-23.28552843 39.81958085-34.58333631 51.73776701-40.50826954 69.27099512h46.98402805l23.28553307-45.43463211 16.9476333-66.41130824 2.6175103-18.04990052 2.20453907-42.57495221s-.34403717-25.90364837 14.15749011-71.78541153V6.9701056z"/>
      <path stroke-miterlimit="10" stroke="#C6C6C6" d="M302.49991202 6.9701056h-6.85456986s-6.3385141 31.1045184-19.5657486 53.28777727c-13.2272438 22.18325889-14.60523548 59.52257853-16.2583303 85.28836962-1.65310414 25.76579051.27571747 52.21966149-23.0098156 92.0392377-23.28552843 39.81958085-34.58333631 51.73776701-40.50826954 69.27099512h46.98402805l23.28553307-45.43463211 16.9476333-66.41130824 2.6175103-18.04990052 2.20453907-42.57495221s-.34403717-25.90364837 14.15749011-71.78541153V6.9701056z" fill="none" stroke-width=".61"/>
      <path fill="#C9C9C9" d="m251.55454187 19.93871185-5.16731518 9.24882179 5.63213117 3.35865806 5.32225385-9.5586991-5.78706984-3.04878075zM180.71645889 7.9003612l-4.59878868 7.33646578 4.59878868 2.53211065-12.76241968 21.13223378-.8265509-.67160875-4.9086695 8.11238773 20.04765034 11.83217221 22.21742106-36.6335557-22.52730072-13.6402057h-1.2401306zM144.65142854 21.07575091l-7.49201993 13.12414994 4.44384943 2.63459021 7.59511038-12.7618135-4.54693988-2.99692665zM150.38664846 24.02083277l-7.64696044 13.33032838 4.75373024 2.70412924-.5166698.80946749 4.90867008 2.94508185 7.64696004-12.7618135-4.85743-2.63519522.67221987-1.18827884-4.96052-3.2037194zM221.20765082 30.37581247l-8.19840168 13.93361742 5.78706984 3.375738 8.19840168-13.74390459-5.78706984-3.56545083zM227.3387625 35.21554678l-10.195543 16.67191582 3.16894989 1.8605019 2.41072218-3.99611626 1.5158504.89548143 7.64695743-12.60686553-4.5469369-2.82491736zM237.32811774 41.55406087l-7.16444719 12.19390364-4.27121943-2.54919058 7.16444719-12.1682884 4.27121943 2.52357534zM238.98182689 41.00261662l-7.6298775 13.36510254 5.08068691 2.89322776 7.78482547-13.08937576-5.23563488-3.16895454zM247.7310585 42.58740105l-2.34239782 4.2022854.998566.48190523-7.4743245 12.53854582 13.9848572 9.0249491 2.96216177-5.44241834-7.64695742-5.21854566.62036897-1.18827883 7.30230593 4.47800288s2.82430304-.5855948 1.8598969-3.28972405c1.1711989.67160875 1.58477511.94732623 1.58477511.94732623l1.92882161-3.99610697-1.99775563-1.03334017s3.99550196-.41358552 1.99775563-3.51359673c-3.23787925-1.99775564-13.77807374-7.99100391-13.77807374-7.99100391zM239.30879345 62.3074833l-2.42841177 4.70187556-.61976396-.25863755-2.79013389 5.46010794 14.00193713 8.18071209 3.01827888-5.4765782.44347306.25802789 2.42841177-4.90867298-14.05379122-7.95683475zM213.00924914 52.6969301l-4.03027147 6.97534867 12.3488423 7.59511263 4.23705958-7.02658845-12.5556304-7.54387286zM199.50689752 72.21082925l-6.68254662 11.9181815 10.26446771 5.78706984-1.24012828 2.41072218 5.30516927 3.03170082 1.23951862-2.20454374 7.09613214 3.92657259 3.23787925-6.20004104-1.99775098-1.17119891 3.27204377-5.58028174-6.09695182-3.44467201 1.24012828-2.20453909-5.3045596-3.16894988-1.37799168 2.54919058-8.95541006-5.6492111zM221.8963395 86.4024792l-8.54243886 16.80977457 7.50909869 3.92656793 8.887095-16.53405243-7.85375483-4.20229006zM235.19251268 88.46915955 233.814521 91.5002507l6.20064605 3.1689499 1.44631137-3.10002053-6.26896575-3.10002052zM232.29928492 92.4646615l-4.54694621 10.60972888 4.54694621 2.06668035 2.61750098-5.51134771 2.41133184 1.10226954 2.06668035-4.96052243-7.09551317-3.30680862zM191.72208136 92.4646615l-2.54919058 4.61587094.6197593.41358086-.6197593 1.58417011 15.31099943 9.3696006 1.9288216-3.65146013.60328905.34464685 1.44630672-3.58253076-7.23337655-3.85763856-.3446515.75761804-9.16219817-5.99385794zM186.8304883 101.0766394l-4.47800986 7.3712446 16.05214954 9.78256714 4.20229006-7.64695742-15.77642973-9.50685432zM177.59874878 112.30552257l-2.13560972 3.78931886-1.51524074-.96440848-5.9938591 10.67804858 7.85374901 4.54694156 8.26733105-14.26058166-6.4763705-3.78931886zM185.3835696 118.23045114l-7.09552015 12.67580072 7.99160892 4.61587093 5.37348897-9.71364126-2.48025656-1.17119891 1.65309948-3.30681096-5.44242067-3.10002052zM195.02888999 124.01752098l-7.37184962 13.29617085 6.26958008 3.65085046 7.30231058-13.22723915-6.20004104-3.71978216zM207.5668308 115.26829169l-2.68643965 5.16670086 6.81980035 3.99549963 2.96276679-5.23563023-7.09612749-3.92657026zM203.01988924 127.53112237l-7.78482081 14.19164996 3.89241273 2.34240015 7.28523066-12.74533975-.98149073-.55082994.68929834-1.58478094-3.10063019-1.65309948zM207.01600086 131.2509022l-8.54305317 14.60523024 3.1695642 1.8598902.96440615-1.65310006 2.54858092 1.65310006 7.37184961-13.08938012-5.5113477-3.37574033zM215.48951036 135.52212279l-9.07679854 16.53404996 8.25024647 4.8915903 9.50684966-16.6719106-8.6802976-4.75372966zM220.79406996 148.12960264l-2.68643965 5.92432007 6.6136219 3.23788042 2.68643965-5.92432036-6.6136219-3.23788013zM232.57438808 156.05228277l-4.82204937 8.2667208 12.0560449 7.30230942 2.686435-4.6152601-.61975466-.34465033 2.20453909-3.78932002-11.50521496-6.81979977zM229.75009434 139.48346256l-3.23788391 5.27039976 14.5362968 9.0938805 3.65085046-6.47637022-12.19328932-7.44017048-.48251023 1.03334017-2.2734638-1.48107973zM142.60182812 138.347032l-4.8909799 8.61137056-.75823004-.29280002-1.99774982 3.04817012 8.4051898 5.30516994 7.2333803-11.84986006-7.99161034-4.82205053zM153.55559853 144.75386232l-7.37124024 12.53794081 6.8204103 4.47800986 4.34015025-7.57803009 1.58416953.8271597 3.10063077-4.89158992-8.47412061-5.37349036zM164.7161588 152.4008228l-6.40683032 10.95376997 7.64696092 4.2712206 3.72038949-6.20003988 1.23952094.7576192 2.68704932-4.34014996-8.88709036-5.44241994zM174.84337976 160.01362313l-5.23563024 8.7833903 7.02658845 4.13335954 6.75148065-10.81590964-5.78706984-3.30681037-1.10226954 2.34239956-1.65309948-1.1364294zM186.3479804 165.86901267l-5.23563024 8.99079157 8.06054062 4.85681889 5.82122969-9.50745933-6.94058148-4.09920084-.3617291.65452998-1.3438295-.89548027zM199.30010942 172.2416843l-7.26815073 12.2969882 7.7500513 4.75373199 7.50909868-12.40069175-7.99099925-4.65002845zM209.73721003 180.54317287c-.03415985.10309154-7.44077898 12.262833-7.44077898 12.262833l9.2317372 5.4765782 7.130292-12.29699054-8.92125022-5.44242066zM224.5486193 187.74239423l-2.37655767 4.5811014 2.72120917 1.4469164-6.23481056 16.46512306 13.39925775 7.30231058 8.68091192-22.4242115-2.9627668-1.44692103 1.30905765-2.4454917-8.19778736-5.44241834-1.18889316 3.1024615-2.35947775-1.55245124-.55082993 1.55245125-2.23931326-1.13887038zM227.2008991 216.95224621l.75823237-1.30845263 4.89098339 2.6522798-5.64921576 9.8514965-4.9599081-2.96276679-2.17037923 4.20289973 4.44384768 2.75536902-5.09838116 9.05910895-20.87419658-12.53794082 5.82183935-9.40375579 7.99099926 4.9599081 1.79156788-2.96215712-6.06278731-3.72038949 5.5113477-8.95601973 13.60605051 8.37042027zM192.9963695 208.030996l-4.89159074 9.0249491 7.23398855 4.06443132 4.82205403-9.0591136-7.16445185-4.03026681zM182.42141014 200.6939159l-4.78789185 8.92125022 6.23481056 3.47943688 4.75312-8.6802976-6.20003871-3.7203895zM170.9851292 193.56362392l-4.99467995 8.9212502.9650193.62036898-.9650193 1.96359112 4.99467995 2.96216179 1.2401306-1.92882161 1.17119892.58559945 5.09838116-8.92185987-7.50971068-4.20229006zM159.9453492 185.74464325l-6.59654081 12.71056907 7.26815073 3.92657258 5.37349013-10.12722329-.688691-.44773606 1.2401306-2.39364225-6.59653965-3.66854005zM148.9397284 179.47506318s-5.99324995 9.50745933-5.75230025 9.5763887c.24095029.06893402 6.2689703 3.89241273 6.2689703 3.89241273l5.92492985-9.61055088-6.4415999-3.85825055zM138.39953805 170.79476325l-7.88791003 12.74534091 7.16445068 4.44324035 7.8885197-12.67580188-7.16506035-4.51277938zM178.2362 263.71301124l13.12414994-22.7859336 20.0470395 11.78031811-12.86550773 23.2507589-8.88709036-5.26978543 4.23705958-7.23399553-4.23705958-2.2734638-4.08151125 7.02719347-7.3370801-4.49509212zM183.86832885 268.77601322l-4.90867065 8.47411916 8.42227204 5.32163953 5.16669853-8.6802976-8.68029992-5.11546109zM175.3942097 277.81865656l-4.28830169 7.13028734 11.16056114 6.61362656 3.92657026-6.8722641-10.79882972-6.8716498zM168.93613844 273.78838974l-3.10063018 5.063607 2.81637042 1.75680301 3.07440063-4.93490718-2.79014087-1.88550283zM159.63546838 264.90129939l-5.89015993 10.0235151 7.64696063 4.75372966 6.1488001-9.662398-7.9056008-5.11484676zM169.96947862 259.21731412l-2.73889993 4.6506451 3.87532932 2.37655767 3.10002052-4.54694622-4.23644991-2.48025655zM162.11572843 247.33390212l-2.84198972 4.80496945 4.80497002 2.94508185 2.89383975-4.80496944-4.85682005-2.94508186zM168.21267909 250.89874794l-2.37717083 4.18520548 4.88305077 2.89384208 2.3509401-4.08212091-4.85682004-2.99692665zM175.96272922 237.05174017l-6.50992069 11.418596 7.49202109 4.5469369 6.7167088-11.31550212-7.6988092-4.65003078zM164.37150846 229.19798999l-5.09776975 8.73215169 6.3037405 3.87533746 5.5284288-8.57721303-6.73439955-4.03027612zM143.77302819 252.13887157l-7.02658962 11.31550212 12.6068699 7.85375019 4.80497002-7.54387286-5.7352201-3.6685354 1.96359007-3.92656793-6.61362027-4.03027612zM152.9699985 223.4109248l-5.16670015 9.86858109 8.26672037 4.39199824 5.99386027-10.9537707-4.28830052-2.68643966-1.65370973 1.1364294-3.15187025-1.75679837zM141.499558 215.55717462l-8.31857025 12.45254118 6.1488001 4.2882947 8.6803005-12.24574842-6.51053036-4.49508746zM133.43962762 104.28829376l6.35498087 3.87532815 7.69880977-12.47816107-6.5623798-3.92656793-7.49141084 12.52940085zM155.2178485 99.58641354l-8.39604015 13.95069735 6.69109007 4.13336069 2.2734702-3.6423105.54228998.33550187 4.83120016-8.0086935-.5166701-.46481599 1.36883972-2.16976957-6.79417987-4.13397035zM154.41691866 84.9384829c.1030898.07746933-2.79014014 4.36576868-2.79014014 4.36576868l13.97632058 8.65467771 3.04877958-4.75372966-14.23496002-8.26671673zM159.2993586 77.62702269l13.201621 8.11238773 2.24784857-3.95279749-.98209807-.59414407 2.17037923-3.4361274-12.24575075-7.5432632-4.39199998 7.41394443zM151.05825848 62.4880372l-5.06361012 8.16424182 1.73118008 1.23951862-1.4725402 2.68705397 2.84199016 1.75679837 6.7167101-10.90191661-4.75373002-2.94569618zM145.99464836 58.8201068l-7.44017048 11.80594267 4.83120016 2.9713114 6.6136204-10.41147607-1.31760003-.8784015.72346-1.34322681-3.41051005-2.14414968zM139.51034872 56.3136207l-8.83524091 14.57106632 5.32164069 3.28058372 8.99078983-14.59607654-5.4771896-3.2555735z"/>
      <path fill="#F0F0F0" d="m250.62428626 19.00907057-5.16669155 9.24882178 5.63151685 3.35804375 5.32225385-9.55869911-5.78707915-3.04816642zM179.78621026 6.9701056l-4.59818133 7.3370801 4.59818133 2.53150564-12.76181117 21.13283878-.82716057-.67160875-4.9086695 8.11178272 20.04764918 11.8321629 22.21803072-36.63294137-22.52791038-13.64082003h-1.24012828zM143.72117817 20.1454953l-7.49202051 13.12415925 4.4438506 2.63519522 7.59511015-12.76241851-4.54694024-2.99693595zM149.45639845 23.09057716l-7.64696022 13.3309427 4.75373024 2.70412924-.51667008.80946749 4.90867007 2.94508186 7.64696033-12.76241852-4.85682034-2.63520453.6716102-1.18827883-4.9605202-3.2037194zM220.27739987 29.44617118l-8.19779201 13.93301242 5.78646017 3.37573799 8.19840168-13.7439139-5.78706984-3.5648365zM226.4091212 34.28590549l-10.19615265 16.67191583 3.16894989 1.85988758 2.41133184-3.99610696 1.51524074.89608644 7.64696208-12.60747985-4.5463319-2.82430304zM236.39847645 40.62381457l-7.1650522 12.19389433-4.27122408-2.54919058 7.16445184-12.16766477 4.27182444 2.52296102zM238.05158059 40.07237032l-7.6298775 13.36510254 5.08068692 2.89384208 7.78481616-13.08938507-5.23562558-3.16955955zM246.8008122 41.65715475l-2.34239781 4.2022854.99918032.48251024-7.47494815 12.53794081 13.98486651 9.0249491 2.9627668-5.44241834-7.64695743-5.21855496.61975465-1.18827884 7.30231524 4.47801219s2.82490805-.58560411 1.8605019-3.28973335c1.17119891.67161805 1.58417012.94733553 1.58417012.94733553l1.92942662-3.99550196-1.99836065-1.03334017s3.99610697-.41357621 1.99836065-3.51359673c-3.23787926-1.99775563-13.77867876-7.99160892-13.77867876-7.99160892zM238.37853784 61.37722769l-2.42841177 4.70188487-.61975465-.25803253-2.7901432 5.45949826 14.00255145 8.1807121 3.01767387-5.4765782.44407807.25802789 2.42841177-4.90806332-14.05440554-7.95744907zM212.07960786 51.7672888l-4.03026682 6.97474367 12.34883764 7.59571764 4.23644992-7.02720277-12.55502074-7.54325854zM198.57665122 71.2805783l-6.68255127 11.9181815 10.26508203 5.78706984-1.24013293 2.41133184 5.3045596 3.03109115 1.24013293-2.20453908 7.09551782 3.9271776 3.23787926-6.2006507-1.99775098-1.17119892 3.27265343-5.58028173-6.09695182-3.44466736 1.24013293-2.20454374-5.30517392-3.16894989-1.37737735 2.54919058-8.95601973-5.6492111zM220.96669821 85.4722329l-8.54304852 16.80976992 7.50909868 3.92656793 8.88709036-16.53404778-7.85314052-4.20229006zM234.26225707 87.53891325l-1.37737735 3.03169617 6.20004104 3.16894988 1.44691639-3.10001586-6.26958008-3.10063019zM231.36902931 91.53502022l-4.5469369 10.6091192 4.5469369 2.06668035 2.6181246-5.5113477 2.41132254 1.10226954 2.06668035-4.95990811-7.09612749-3.30681328zM190.7918304 91.53502022l-2.54919057 4.61587093.62036897.4129712-.62036897 1.58477978 15.3116091 9.36899092 1.9288216-3.65085046.60267938.34403718 1.44692104-3.5825261-7.23399088-3.85764322-.34404183.7576227-9.16280783-5.99325293zM185.90023968 100.1463931l-4.47800986 7.37123995 16.05215186 9.78256947 4.20229006-7.64695975-15.77643206-9.50684967zM176.66910982 111.37588128l-2.13560972 3.78871152-1.5158504-.9644108-5.99325061 10.6780509 7.85314052 4.54693923 8.26732872-14.26057933-6.47575851-3.78871152zM184.4539283 117.30020252l-7.0961298 12.67640922 7.99161124 4.61587092 5.3734913-9.71424976-2.48026121-1.17120124 1.65370914-3.30680862-5.44242066-3.10002052zM194.09863903 123.08727236l-7.37123994 13.29616968 6.2689704 3.65146013 7.30231058-13.22724032-6.20004104-3.7203895zM206.63718951 114.33804074l-2.68704931 5.16670086 6.82041 3.9961093 2.96216179-5.2362399-7.09552248-3.92657026zM202.09024796 126.60087141l-7.78481617 14.19165113 3.89240809 2.34240015 7.28523065-12.74533975-.9821004-.55082994.68929835-1.58477978-3.10002052-1.6531018zM206.08574991 130.32065124l-8.54243886 14.60523141 3.16894989 1.86049987.9644108-1.65371002 2.54918593 1.65371002 7.37123995-13.0899898-5.5113477-3.37574148zM214.5592594 134.59248266l-9.07618887 16.53405004 8.24964146 4.89097997 9.50684966-16.67191-8.68030225-4.75312zM219.86442867 147.19935256l-2.68704932 5.92493032 6.6136219 3.23788013 2.68704933-5.92493032-6.6136219-3.23788013zM231.64474679 155.12203298l-4.82265438 8.26671964 12.05603559 7.30292141 2.68704932-4.61587093-.62036897-.34465033 2.20453908-3.78871036-11.50460064-6.82040943zM228.81983873 138.55382244l-3.23787925 5.26979009 14.53630145 9.0938802 3.65145547-6.47576025-12.19389433-7.44017049-.48251023 1.03334018-2.2734731-1.48107973zM141.672188 137.41678222l-4.89158957 8.61137026-.75762038-.29280002-1.99835947 3.04878016 8.40518978 5.30456019 7.23338009-11.8492504-7.99100046-4.8226602zM152.6259584 143.82361253l-7.3718502 12.53855048 6.82041031 4.47800986 4.34014996-7.5780301 1.58478036.82655004 3.10001936-4.89159015-8.47350979-5.37349013zM163.785909 151.47057271l-6.4068303 10.95377027 7.64695975 4.2712206 3.72039065-6.20004104 1.24012944.75762037 2.68643966-4.34014997-8.8870892-5.44242023zM173.9131288 159.08337276l-5.23563023 8.78339089 7.02720044 4.13397036 6.75148065-10.81652164-5.78706984-3.30680978-1.10227187 2.34240014-1.65370915-1.13642997zM185.41833911 164.93937255l-5.23563023 8.99018074 8.05993095 4.85682121 5.82122969-9.50685083-6.94057916-4.09920084-.36173142.65452999-1.34321983-.89548027zM198.36985846 171.31143334l-7.26815072 12.2976002 7.75066096 4.75312 7.50910334-12.40007976-7.99161358-4.65064044zM208.80695908 179.61292424c-.03415985.10308922-7.44016932 12.26283068-7.44016932 12.26283068l9.2311322 5.47718786 7.13028733-12.2976002-8.9212502-5.44241834zM223.61897801 186.81214327l-2.37716733 4.58171108 2.72120917 1.44631137-6.23481056 16.46511842 13.39986741 7.30292024 8.6803069-22.42482116-2.96216178-1.44631137 1.30845264-2.44548704-8.19779667-5.44303034-1.18827884 3.10245918-2.35947774-1.55183925-.5514396 1.55183925-2.2387036-1.13887038zM226.27126247 216.02260493l.75761804-1.3090623 4.89159306 2.6522798-5.6492111 9.85150116-4.96052242-2.96215713-2.16976957 4.20229006 4.44323802 2.75536902-5.09776685 9.05972327-20.87420123-12.53855514 5.82122969-9.40376044 7.99160892 4.96052243 1.79096287-2.96277145-6.0621823-3.71977983 5.51135236-8.95601972 13.60605051 8.37042027zM192.06611854 207.10074505l-4.89097874 9.0249491 7.23338122 4.06443132 4.82265903-9.0591136-7.16506151-4.03026682zM181.49115919 199.76366495l-4.78788952 8.92185988 6.23481055 3.47882721 4.75372967-8.6802976-6.2006507-3.72038949zM170.05548791 192.63337296l-4.99467878 8.92185988.96440964.6197593-.96440964 1.96359113 4.99467878 2.96216178 1.2401306-1.9288216 1.17120125.58559945 5.09776917-8.92125021-7.50910102-4.20289973zM159.0157085 184.81439462l-6.59653995 12.7105714 7.26814986 3.92656793 5.37349072-10.12660897-.68930067-.44835038 1.2401306-2.39363993-6.59593056-3.66854005zM148.01008835 178.54542422s-5.99325002 9.50684966-5.75230032 9.57577903c.24095028.06892937 6.2689704 3.8924104 6.2689704 3.8924104l5.92432008-9.61055087-6.44099016-3.85763856zM137.46928827 169.8651243l-7.88791004 12.74472891 7.16506034 4.44324035 7.88791004-12.67579955-7.16506034-4.51216972zM177.30594905 262.78276494l13.12414994-22.78594291 20.04764916 11.78032742-12.86550773 23.25136392-8.88709036-5.27039975 4.23644992-7.23398623-4.23644992-2.27285878-4.08212091 7.02658845-7.3370801-4.49509212zM182.93808022 267.84637193l-4.90867065 8.47351415 8.42226971 5.32225385 5.16669854-8.68091192-8.6802976-5.11485608zM174.4645684 276.88841026l-4.28890901 7.13028734 11.1605588 6.61361725 3.92717993-6.8722548-10.79882971-6.87164979zM168.00588866 272.85813414l-3.10001936 5.06360699 2.8157596 1.75680302 3.07439946-4.93429287-2.7901397-1.88611714zM158.7052186 263.97104378l-5.89016023 10.02412942 7.64695975 4.75312465 6.14880127-9.66179298-7.9056008-5.11546109zM169.03922883 258.28767283l-2.73829026 4.65003078 3.87472082 2.37655767 3.10063018-4.54632259-4.23706074-2.48026586zM161.18547864 246.40365583l-2.84198972 4.80496944 4.80557969 2.94568686 2.89323008-4.80557445-4.85682005-2.94508185zM167.2824293 249.96910665l-2.37656 4.18520548 4.88243877 2.89323707 2.35094011-4.08212091-4.85681888-2.99632164zM175.03247827 236.12149387l-6.50991953 11.41920101 7.49201993 4.5463319 6.71671112-11.31550213-7.69881152-4.65003078zM163.44186833 228.26774369l-5.09837941 8.7321517 6.30373934 3.87532815 5.52843113-8.57721303-6.73379106-4.03026682zM142.8427784 251.20862527l-7.02659078 11.31550212 12.60687077 7.85375019 4.80558027-7.54325854-5.7352204-3.6685447 1.9629802-3.92718225-6.61362006-4.03026682zM152.04035851 222.48128351l-5.1673101 9.8685811 8.26733019 4.39199823 5.9932506-10.9537707-4.28830052-2.68704932-1.65310006 1.1364294-3.1518701-1.7561887zM140.56991845 214.62753333l-8.3191805 12.45193152 6.1488001 4.28829936 8.68030022-12.24513876-6.50991982-4.49509212zM132.50937783 103.35865247l6.35498087 3.8747185 7.69880977-12.47755142-6.56177071-3.9271776-7.49201993 12.53001052z"/>
      <g>
        <path fill="#F0F0F0" d="m154.28759843 98.65677225-8.39604016 13.95009 6.69109036 4.13397037 2.27346991-3.64292016.54229027.3361092 4.83120016-8.00868884-.51667009-.46543031 1.36944938-2.16976957-6.79478983-4.1333607z"/>
      </g>
      <g>
        <path fill="#F0F0F0" d="M153.48666858 84.00823194c.1030901.07746933-2.79014014 4.36637835-2.79014014 4.36637835l13.97693054 8.6540727 3.04816991-4.75312-14.23496031-8.26733105z"/>
      </g>
      <g>
        <path fill="#F0F0F0" d="m158.36971847 76.6973814 13.20101019 8.11177807 2.24785089-3.95279749-.98149073-.59413942 2.16976956-3.43552239-12.24513992-7.5438682-4.39199999 7.41454943z"/>
      </g>
      <g>
        <path fill="#F0F0F0" d="m150.12861845 61.55840521-5.06361021 8.16362751 1.73057026 1.24012363-1.47254005 2.6864443 2.84199002 1.75679837 6.71671025-10.90192126-4.75312027-2.94507255z"/>
      </g>
      <g>
        <path fill="#F0F0F0" d="m145.06500824 57.88986051-7.44078015 11.80654767 4.83120016 2.97070175 6.61362016-10.41148073-1.31760008-.87840151.72346008-1.3432175-3.40990017-2.14414968z"/>
      </g>
      <g>
        <path fill="#F0F0F0" d="m138.58009777 55.38397941-8.83524091 14.5704613 5.32225152 3.28118875 8.99018016-14.59669087-5.47719077-3.25495918z"/>
      </g>
    </g>
    <g style="display:block">
      <path fill="#FFBA23" d="M219.20802576 243.92167243c0 2.64495917-4.26267946 4.78850384-9.52149093 4.78850384-5.25881146 0-9.52149093-2.14354467-9.52149093-4.78850384s4.26267947-4.78910885 9.52149093-4.78910885c5.25881147 0 9.52149093 2.14414968 9.52149093 4.78910885z"/>
      <path fill="#FFDB55" d="M218.86398393 242.641283c-1.11324816 2.02337086-4.80008747 3.50932442-9.17683943 3.50932442-4.37675197 0-8.0648106-1.48595356-9.17683944-3.50932442 1.11202884-2.02337087 4.80008747-3.50871942 9.17683944-3.50871942 4.37552798 0 8.06359127 1.48534855 9.17683943 3.50871942z"/>
      <g>
        <path fill="#E7343E" d="M222.94549518 223.59769147c0 11.26791568-11.38991848 21.29387875-13.24188042 21.29387875-1.84097867 0-13.24249009-10.02596307-13.24249009-21.29387875 0-7.3132892 5.92920088-13.24249009 13.24249009-13.24249009 7.3132892 0 13.24188042 5.92920089 13.24188042 13.24249009zm-13.22175217-4.08212092c-2.63763854 0-4.77568691 2.13804838-4.77568691 4.77569157 0 2.63763853 2.13804837 4.7756869 4.7756869 4.7756869 2.6376432 0 4.77569157-2.13804837 4.77569157-4.7756869 0-2.6376432-2.13804837-4.77569157-4.77569156-4.77569157z"/>
        <path fill="#FF4949" d="M219.20802576 223.59769147c0 9.18598906-7.56949274 17.54787402-11.37100956 20.32398096-3.7972538-2.7748876-11.3765012-11.13677257-11.3765012-20.32398096 0-6.6794983 4.94588116-12.20243895 11.37405789-13.11011834 6.42818138.9076794 11.37345287 6.43062004 11.37345287 13.11011834zm-9.48428275-4.08212092c-2.63763854 0-4.77568691 2.13804838-4.77568691 4.77569157 0 2.63763853 2.13804837 4.7756869 4.7756869 4.7756869 2.6376432 0 4.77569157-2.13804837 4.77569157-4.7756869 0-2.6376432-2.13804837-4.77569157-4.77569156-4.77569157z"/>
      </g>
    </g>
    <path stroke-linecap="round" stroke-dasharray="10" stroke="#357CFF" stroke-width="4" d="M110 161.75s.08300018.05299377.23400116.147995" fill="none" transform="matrix(.61 0 0 .61 150 150)" style="display:block"/>
    <g style="display:block">
      <path fill="#FFBA23" d="M174.566027 108.12868524c0 2.64495916-4.26267947 4.78849918-9.52148977 4.78849918s-9.52149035-2.14354002-9.52149035-4.78849918c0-2.64495917 4.26268005-4.78910885 9.52149035-4.78910885s9.52148977 2.14414968 9.52148977 4.78910885z"/>
      <path fill="#FFDB55" d="M174.22137783 106.8482958c-1.1132505 2.02336621-4.79948013 3.50932908-9.17623094 3.50932908-4.37674963 0-8.06481001-1.48596287-9.17684001-3.50932908 1.11203-2.02337086 4.80009038-3.50871941 9.17684001-3.50871941 4.37553031 0 8.06298044 1.48534855 9.17623094 3.50871941z"/>
      <g>
        <path fill="#5EC61A" d="M178.30349641 87.80470428c0 11.26792033-11.3905293 21.29387875-13.24248892 21.29387875-1.84097983 0-13.24249067-10.02595842-13.24249067-21.29387875 0-7.3132892 5.9292003-13.2424901 13.24249067-13.2424901 7.31329037 0 13.24248892 5.9292009 13.24248892 13.2424901zm-13.2223595-4.08212092c-2.6376397 0-4.7756904 2.13804838-4.7756904 4.77569156 0 2.63763854 2.1380507 4.77568691 4.7756904 4.77568691 2.63764086 0 4.77568923-2.13804837 4.77568923-4.7756869 0-2.6376432-2.13804837-4.77569157-4.77568924-4.77569157z"/>
        <path fill="#79E234" d="M174.566027 87.80470428c0 9.18598906-7.56948926 17.54786936-11.37100956 20.32398096-3.79725032-2.77489227-11.37650062-11.13677257-11.37650062-20.32398096 0-6.67950295 4.94527033-12.20243895 11.37344997-13.110123 6.42818138.90768405 11.3740602 6.43062005 11.3740602 13.110123zm-9.4848901-4.08212092c-2.6376397 0-4.7756904 2.13804838-4.7756904 4.77569156 0 2.63763854 2.1380507 4.77568691 4.7756904 4.77568691 2.63764087 0 4.77568924-2.13804837 4.77568924-4.7756869 0-2.6376432-2.13804837-4.77569157-4.77568924-4.77569157z"/>
      </g>
    </g>
    <g style="display:block">
      <path fill="#17191C" d="M130.57952048 59.46605058h-3.2811899v-8.99017492h3.2811899v8.99017492z"/>
      <path stroke-miterlimit="10" stroke="#F7CA0D" d="M130.57952048 59.46605058h-3.2811899v-8.99017492h3.2811899v8.99017492z" fill="none" stroke-width=".61"/>
      <path fill="#17191C" d="M130.57952048 87.05757726h-3.2811899V70.00685939h3.2811899v17.05071787z"/>
      <path stroke-miterlimit="10" stroke="#F7CA0D" d="M130.57952048 87.05757726h-3.2811899V70.00685939h3.2811899v17.05071787z" fill="none" stroke-width=".61"/>
      <g>
        <path fill="#17191C" d="M130.57952048 108.03486771h-3.2811899V90.9841452h3.2811899v17.05072252z"/>
        <path stroke-miterlimit="10" stroke="#F7CA0D" d="M130.57952048 108.03486771h-3.2811899V90.9841452h3.2811899v17.05072252z" fill="none" stroke-width=".61"/>
      </g>
      <g>
        <path fill="#17191C" d="M259.3590637 284.53593226h-96.10916211c-19.20280076 0-34.77000082-15.56720297-34.77000082-34.77000081V53.62469729c0-19.20280715 15.56720006-34.77000081 34.77000082-34.77000081h96.1091621c19.20279785 0 34.77000082 15.56719366 34.77000082 34.77000081v196.14123416c0 19.20279784-15.56720297 34.77000081-34.77000082 34.77000081zm28.9444988-235.50697299H134.56770064v204.8154258h153.73586188V49.02895926z"/>
        <path stroke-miterlimit="10" stroke="#F7CA0D" d="M259.3590637 284.53593226h-96.10916211c-19.20280076 0-34.77000082-15.56720297-34.77000082-34.77000081V53.62469729c0-19.20280715 15.56720006-34.77000081 34.77000082-34.77000081h96.1091621c19.20279785 0 34.77000082 15.56719366 34.77000082 34.77000081v196.14123416c0 19.20279784-15.56720297 34.77000081-34.77000082 34.77000081zm28.9444988-235.50697299H134.56770064v204.8154258h153.73586188V49.02895926z" fill="none" stroke-width=".61"/>
      </g>
    </g>
    <path fill="#F7CA0D" d="M-97.10700226-94.78600311c3.1969986 4.46800232 5.11600495 48.1930046 5.11600495 48.1930046s.28299713 10.74399949.08799743 14.31799698c-.80599975 14.73800087-10.28199768 18.79400158-13.75099945 15.85100174-3.46900177-2.94300079-7.09400177-28.46900177-8.5510025-38.12900161-5.47399902-36.29199982 10.73899841-49.1210022 17.09799957-40.23300171z" transform="rotate(-4.99999441 1776.37212317 -1658.1846987) scale(.61)" style="display:block"/>
    <g style="display:block">
      <path fill="#F9ECDD" d="M76.52288898 192.07295158s-2.53576865 36.34685495-2.95849914 44.37688672c-.4227305 8.03004108-2.1130428 30.8519775-.84485132 34.65593297 1.26819148 3.80396478.68808366 5.35336072.68808366 5.35336072s-6.18296577 7.74883197-8.29599926-1.1266701c-2.1130428-8.87550207.63439592-81.78025842.63439592-81.78025842l10.77687014-1.4792519z"/>
      <path fill="#17191C" d="M72.67805803 271.10577127s8.78156248 3.0988012 8.3374844 7.18519442c-.26413384 2.43145544-17.74917514 5.0440884-17.75099948-.37575838-.00183365-4.8836674.84972399-5.74742765.84972399-5.74742765l.39467194-3.44711068s-.34952881 3.58253076 4.95442578 4.56890346c1.61771564.3007277 3.1695549-.28182343 3.21469337-2.18380117z"/>
      <path fill="#F9ECDD" d="M65.323293 198.62374076 56.09520913 271.246683l-3.45138298 15.70811469s-3.16955956 4.86047222-4.43774638.21167008c-1.26818683-4.64881145-.42212083-10.98914989-.42212083-10.98914989s5.10875012-39.4322342 5.28260235-48.81464706c.21105577-11.41127072.845461-30.21817729.845461-30.21817729l11.4112707 1.47924724z"/>
      <path fill="#17191C" d="M56.09520913 271.24668299s.52643404-2.04716176-3.60814599-2.526014c-1.82451771-.21105577-4.28098337 5.34360608-4.28098337 5.34360608s-2.89993873 12.60626051.84546098 15.63796133c4.43774638 3.5922854 6.671568-17.3764651 7.04366838-18.45555341z"/>
      <path fill="#606060" d="m31.0193275 158.26187051-24.93557492 2.9572804 8.73397603 41.41839107 36.6292834-10.42428835-8.73520468-36.3468532-11.69247983 2.39547008z"/>
      <path fill="#17191C" d="m6.08375258 161.2191509-1.12728442 2.81758975 8.1709528 38.60080133h1.69030765L6.08375258 161.2191509zM38.76694014 158.40217082l49.0263125-2.25394987s1.69091731 4.22668946 1.69091731 5.35335956c0 0 3.38061997 23.94921153.84485133 47.0535694l-44.88318786-.48494889-2.17037923-11.06722888-2.94935416 11.01172145-2.12219243-.02318123s-2.25455954-29.8668218.56303254-49.58934154z"/>
      <path fill="#F9ECDD" d="m35.20392797 146.01246031 2.15513296 13.09426036s-1.69030766 8.87610999-5.49427244 10.56641997c-3.80395547 1.69030999-2.9585038.84485133-3.80395547-.84545982-.845461-1.69030998-5.49427244-3.80396013-4.22608561-4.22668946 1.26819613-.4227305 5.49427243 1.26818916 5.49427243 1.26818916l-4.64941646-3.38122964 5.91699828 1.26819032.42272584-5.49427069.84546099-4.64941995-1.79889317-6.52090019 5.13803265-1.07909006z"/>
      <path fill="#F7CA0D" d="M41.86696066 88.52666848c-1.4877872.2970697-18.87827925 33.81047198-18.87827925 36.62806173 0 2.81758975 7.88973438 28.1759004 7.88973438 28.1759004l8.45277623-.28120998-5.07215161-25.35830978s6.88933472-13.52065087 8.45276692-18.3146417c4.37553263-13.41633767 7.60487658-22.53645034-.84484667-20.84980067z"/>
      <path fill="#F7CA0D" d="m85.53930276 114.72982988-.28182343 20.00495051 9.58005134 26.20316024s-57.47846974 2.25456069-58.88756829 1.69091964c-1.40909854-.56363988 8.73397604-34.09290042 8.73397604-34.09290042l-1.9721311-19.1594907s-2.2533402-20.28615846-.84484666-20.84980067c1.40849353-.56363756 13.80552263-2.25455953 13.80552263-2.25455953s4.46580959 2.95849914 8.87610708 2.95849914c5.09472318 0 7.1845801-2.11303815 8.87488775-2.95849914 1.69031231-.84546099 14.9346314-.56364221 15.21645483 1.97213109.28181878 2.53576864-3.10063019 26.48558984-3.10063019 26.48558984z"/>
      <path fill="#F9ECDD" d="M93.74258176 56.31013055c-.3507528 4.43347408-3.14515899 5.57905775-4.48045084 5.87490813-1.51706974 9.15853553-7.28644999 19.05274116-24.29751637 21.9349903 0 0-25.9286679-3.98573802-27.2639551-34.22953984 0 0 26.98578966-16.559058 50.365872-5.25331983 0 0 1.16570727 3.62156793 1.54207996 8.69310522.84546099-.46054368 4.54388858-2.2014861 4.13397035 2.97985602z"/>
      <path fill="#17191C" d="M93.47478993 88.90120752s-.07625 15.62088141-28.7395397 6.33973343c0 0-23.85404795 11.19106067-41.63006232-1.69092198 0 0 15.23597341-19.47058967 7.51886264-28.63340216-7.72138309-9.16708014-6.3348468-41.17804464 17.4173266-43.4094276 0 0 23.77780261-5.05079937 33.32491343 7.13821764.87473887.20313477 1.765948.41906785 2.67911902.64294054 0 0 7.32427248 3.14882164 8.52474927 10.26995935 1.19621379 7.1211377.68442102 10.13881157.68442102 10.13881157s-1.00527697-.65087083-2.67911902-1.44936435c.16897027 1.1663216.2702305 2.39669058.28731042 3.68135232.13542008 11.10688503-1.74948239 44.9008821 2.61201864 36.97210124z"/>
    </g>
    <g style="display:block">
      <path fill="#44423F" d="m142.8883287 126.36435317-5.80284617-3.65777582 9.16640809-14.54247233 5.8028457 3.65777527-9.16640761 14.54247288z"/>
      <path fill="#68635D" d="m118.41094759 170.38865263 27.8518658-46.66587698-3.98480048-2.51183306-.27985153-.17652662-3.9854093-2.51180115-30.08872932 45.2560121s-4.63668272 7.20654232.37541334 10.7182325l-.00451953.00695472c.04676867.02992418.0940869.05859622.14075973.0866916.04555102.029988.0923197.05991217.1390929.08983379l.00451953-.0069547c5.33015836 3.00696252 9.83165886-4.2847322 9.83165886-4.2847322z"/>
      <path stroke-miterlimit="10" stroke="#E2E2E2" d="M190.63704275 101.1455272c-8.9239079 14.15776409-27.63565374 18.40088606-41.79341788 9.476977-14.15776362-8.92391025-18.40027563-27.63568864-9.47636755-41.79344924 8.92390987-14.15776534 27.63568745-18.40027615 41.79345153-9.47636825 14.15776524 8.92390784 18.40024418 27.63507746 9.4763339 41.7928405z" fill="none" stroke-width=".61"/>
      <path fill="#302E2B" d="M157.19561809 116.06593346c-3.2700275-.82001324-6.38005269-2.15357394-9.27576963-3.97848476-3.65756872-2.30541781-6.754793-5.25959083-9.20608851-8.77965368-1.17779527-1.69198673-2.19657413-3.5083677-3.02874031-5.40049774-.82386726-1.87363244-1.4716361-3.83711962-1.92456277-5.8358626-.45292807-1.99874756-.71556058-4.04961134-.78060564-6.09495254-.06552041-2.06608267.06985679-4.14513594.40303824-6.17958258.69320302-4.23277724 2.21339788-8.23402044 4.5188145-11.89158968 2.30541777-3.6575693 5.2595577-6.75540294 8.7796209-9.2066973 1.69198741-1.1777988 3.50897713-2.19660956 5.40110828-3.02876997 1.87362956-.82386944 3.8371505-1.47103305 5.83589546-1.92395515 1.99874448-.4529314 4.04896844-.71614555 6.09491737-.7812213 2.06608175-.0655157 4.1445271.0698887 6.17897265.40307138 4.23277962.69320406 8.23466589 2.21397571 11.8922353 4.51939582 3.65756686 2.30541557 6.7547916 5.25958623 9.20608827 8.77964903 1.17779423 1.6919891 2.19660512 3.50898123 3.02877014 5.40111134.82386946 1.87362998 1.47160523 3.8365084 1.92453214 5.83525602.45292667 1.99874298.71620457 4.05018344.78124847 6.0955247.0655204 2.06608267-.0698887 4.1445271-.40307132 6.17897382-.69320406 4.23277961-2.21400774 8.23405473-4.51942552 11.89162402-2.30541546 3.65756918-5.25955666 6.75540056-8.77961945 9.20669722-1.69198667 1.17779643-3.50894468 2.1972137-5.4011089 3.02877234-1.8736301.82386714-3.83711729 1.47163598-5.83586259 1.92456277-1.9987453.45292678-4.04961012.71556169-6.09494906.78060546-2.06608266.06552041-4.14452768-.06988867-6.17897317-.40307018-.88228353-.14434282-1.75548561-.32520098-2.61646485-.54090644zm14.77748084-58.78810094c-11.65710442-2.92337775-24.39209522 1.76883878-31.1402871 12.47496747-8.40058764 13.32708689-4.39252812 31.00356434 8.93455813 39.40415086 2.62092943 1.65178299 5.41034995 2.8237827 8.26383355 3.53979402 11.65713506 2.92399014 24.3920936-1.76883636 31.14028589-12.47496275 4.06945428-6.45602715 5.38113884-14.10953164 3.69367155-21.55210746-1.6874673-7.44257582-6.17220206-13.78259146-12.6282291-17.85204342-2.62093086-1.65178525-5.41038311-2.82439613-8.26383292-3.53979872z"/>
      <path fill="#F9F9F9" d="M150.63066693 76.43191939c-1.18824457 1.88501193-3.67956602 2.44988086-5.5645766 1.26163957-1.88501142-1.1882459-2.44988147-3.67956641-1.26163676-5.56457835 1.18824471-1.88501193 3.67956557-2.44988084 5.56457699-1.26163493 1.88501106 1.18824126 2.44988084 3.67956179 1.26163637 5.5645737zM148.7675899 82.11933017c-.52165498.82753857-1.61489073 1.07541165-2.4424259.55375474-.82753552-.52165223-1.07537858-1.61428167-.55372393-2.44181556.52165523-.82753393 1.61489073-1.07541166 2.4424262-.55375476.82753547.52165689 1.07537857 1.61428167.55372363 2.44181558z"/>
      <g>
        <path fill="#F9F9F9" d="M152.03420163 82.4429155c-.30677123.48703024-.95026592.63314724-1.43729843.32637693-.48703266-.3067703-.63254162-.95029802-.32577046-1.43732825.30677092-.48703487.95026568-.63315188 1.43729826-.32638157.48703256.3067703.63254161.95029802.32577063 1.4373329z"/>
      </g>
    </g>
    <path fill="#F9ECDD" d="M-55.02000046-22.26000023c10.51599884-.29599953 18.55599976-.38699913 18.73799896.31200028.51000214 1.95499992 8.44800187 3.20000076 8.44800187 3.20000076s10.7180004 5.30899906 11.90999984 4.93699932c1.19199944-.37199974-5.1060009-4.7470007-5.1060009-4.7470007s8.54500103 2.86700059 11.0670004 2.88500023c2.5220003.0180006-10.09200002-6.20899963-10.09200002-6.20899963s10.01200009 4.0189991 11.92700005 2.41500092c1.91500044-1.6040001-12.7119999-5.89400101-12.7119999-5.89400101s8.48799992 4.29400062 12.39700032 3.27499962c3.90899992-1.0189991-11.98899937-7.12800026-13.22099972-7.85000038-1.23200035-.72200013 7.66399956-.27899933 8.58099938-2.1759987.91699981-1.89699935-5.9829998-1.75500106-12.55200005-1.51599883-6.56899834.23899841-10.74899864 5.87299919-10.74899864 5.87299919l-18.15999985-1.4790001-.47600174 6.97399903z" transform="rotate(-22.99999055 411.4238128 -305.06154088) scale(.61)" style="display:block"/>
    <path fill="#F7CA0D" d="M-94.47899628-42.3030014c14.7069931 1.31600189 55.17899704 9.72200012 55.17899704 9.72200012l-1.00500107 16.5530014s-52.2310028-6.9300003-56.36799621-8.82100105c-12.27700043-5.61199951-12.13200379-18.73599815 2.19400024-17.45400047z" transform="rotate(-21.00000134 447.13302703 -340.63335068) scale(.61)" style="display:block"/>
  </g>
</svg>
